<svg width="18" height="18" viewBox="0 0 18 18" fill="none" xmlns="http://www.w3.org/2000/svg">
<g clip-path="url(#clip0_1_940)">
<path d="M10.2266 1.3281C9.95166 1.60235 9.95113 2.04757 10.2253 2.32249L16.3886 8.50099C16.6627 8.7751 16.6627 9.22124 16.388 9.49598L10.2253 15.6738C9.95113 15.9487 9.95166 16.394 10.2266 16.6682C10.5015 16.9425 10.9468 16.9419 11.221 16.667L17.383 10.4898C17.7944 10.0785 18 9.5382 18 8.99799C18 8.45799 17.7945 7.91799 17.3837 7.50719L11.221 1.32936C10.9467 1.0544 10.5015 1.05384 10.2266 1.3281Z" fill="white"/>
<path d="M-3.07361e-08 8.99801C-1.37599e-08 9.38638 0.314789 9.70117 0.70316 9.70117L13.4304 9.70117C13.8187 9.70117 14.1335 9.38638 14.1335 8.99801C14.1335 8.60964 13.8187 8.29485 13.4304 8.29485L0.70316 8.29485C0.314789 8.29485 -4.77108e-08 8.60968 -3.07361e-08 8.99801Z" fill="white"/>
</g>
<defs>
<clipPath id="clip0_1_940">
<rect width="18" height="18" fill="white" transform="translate(0 17.998) rotate(-90)"/>
</clipPath>
</defs>
</svg>
